<svg width="21" height="17" viewBox="0 0 21 17" fill="none" xmlns="http://www.w3.org/2000/svg">
<path fill-rule="evenodd" clip-rule="evenodd" d="M13.4 0C13.4 0 13.4163 0.0261333 13.449 0.0784L13.464 0.1024C13.4986 0.157867 13.5474 0.235867 13.6102 0.3364L13.6402 0.3844C13.7074 0.491867 13.7886 0.621867 13.884 0.7744L13.929 0.8464C14.0286 1.00587 14.1424 1.18787 14.2702 1.3924L14.3302 1.4884C14.4624 1.69987 14.6086 1.93387 14.769 2.1904L14.844 2.3104C14.9782 2.52526 15.1219 2.75511 15.2749 2.99994L20.4 3V17H0.399963V3H5.52495L7.39996 0H13.4ZM10.4 4C7.3624 4 4.89996 6.46243 4.89996 9.5C4.89996 12.5376 7.3624 15 10.4 15C13.4375 15 15.9 12.5376 15.9 9.5C15.9 6.46243 13.4375 4 10.4 4ZM10.4 6C12.333 6 13.9 7.567 13.9 9.5C13.9 11.433 12.333 13 10.4 13C8.46697 13 6.89996 11.433 6.89996 9.5C6.89996 7.567 8.46697 6 10.4 6ZM18.4 5C17.8477 5 17.4 5.44771 17.4 6C17.4 6.55228 17.8477 7 18.4 7C18.9522 7 19.4 6.55228 19.4 6C19.4 5.44771 18.9522 5 18.4 5Z" fill="white"/>
</svg>
