<svg width="25" height="24" viewBox="0 0 25 24" fill="none" xmlns="http://www.w3.org/2000/svg">
<path fill-rule="evenodd" clip-rule="evenodd" d="M0.399963 12.0242V21.1671C0.399963 22.4299 1.47397 23.4288 2.79997 23.4288H5.19996V9.71448H2.79997C1.47397 9.71448 0.399963 10.7613 0.399963 12.0242ZM24.3148 13.5487L22.2292 21.0173C21.886 22.4356 20.56 23.4288 19.0312 23.4288H7.59997V9.73848L9.66276 2.65847C9.90636 1.15333 11.548 0.143036 13.2112 0.751036C14.206 1.11561 14.8 2.10187 14.8 3.11787V8.59562C14.8 9.22648 15.3376 9.71448 16 9.71448H21.1168C23.2276 9.71448 24.7888 11.591 24.3148 13.5487Z" fill="white"/>
</svg>
