<svg width="32" height="32" viewBox="0 0 32 32" fill="none" xmlns="http://www.w3.org/2000/svg">
<path d="M28 0H4C1.7875 0 0 1.7875 0 4V20C0 22.2125 1.7875 24 4 24H12L9.33125 32L21.3312 24H28C30.2125 24 32 22.2125 32 20V4C32 1.7875 30.2125 0 28 0ZM8 14.6687C6.525 14.6687 5.33125 13.475 5.33125 12C5.33125 10.525 6.525 9.33125 8 9.33125C9.475 9.33125 10.6687 10.525 10.6687 12C10.6687 13.475 9.475 14.6687 8 14.6687ZM16 14.6687C14.525 14.6687 13.3313 13.475 13.3313 12C13.3313 10.525 14.525 9.33125 16 9.33125C17.475 9.33125 18.6688 10.525 18.6688 12C18.6688 13.475 17.475 14.6687 16 14.6687ZM24 14.6687C22.525 14.6687 21.3312 13.475 21.3312 12C21.3312 10.525 22.525 9.33125 24 9.33125C25.475 9.33125 26.6688 10.525 26.6688 12C26.6688 13.475 25.475 14.6687 24 14.6687Z" fill="white"/>
</svg>
