<svg width="25" height="24" viewBox="0 0 25 24" fill="none" xmlns="http://www.w3.org/2000/svg">
<path d="M6.39996 14V9.00001C6.40351 7.72911 6.81051 6.49216 7.56231 5.46746C8.31411 4.44277 9.37186 3.68326 10.5831 3.29843C11.7943 2.91359 13.0965 2.9233 14.3019 3.32616C15.5072 3.72902 16.5535 4.50421 17.29 5.54001" stroke="white" stroke-width="2" stroke-linecap="round" stroke-linejoin="round"/>
<path d="M18.4 10V15C18.3964 16.2709 17.9894 17.5078 17.2376 18.5325C16.4858 19.5572 15.4281 20.3167 14.2168 20.7016C13.0056 21.0864 11.7034 21.0767 10.4981 20.6738C9.29271 20.271 8.2464 19.4958 7.50996 18.46" stroke="white" stroke-width="2" stroke-linecap="round" stroke-linejoin="round"/>
<path d="M8.39996 12L6.39996 14L4.39996 12" stroke="white" stroke-width="2" stroke-linecap="round" stroke-linejoin="round"/>
<path d="M16.4 12L18.4 10L20.4 12" stroke="white" stroke-width="2" stroke-linecap="round" stroke-linejoin="round"/>
</svg>
